<?xml version="1.0" standalone="no"?>
<!DOCTYPE svg PUBLIC "-//W3C//DTD SVG 20010904//EN"
 "http://www.w3.org/TR/2001/REC-SVG-20010904/DTD/svg10.dtd">
<svg version="1.0" xmlns="http://www.w3.org/2000/svg"
 width="512.000000pt" height="512.000000pt" viewBox="0 0 512.000000 512.000000"
 preserveAspectRatio="xMidYMid meet">

<g transform="translate(0.000000,512.000000) scale(0.100000,-0.100000)"
fill="#000000" stroke="none">
<path d="M2365 5019 c-464 -36 -916 -208 -1293 -491 -126 -95 -334 -297 -435
-423 -306 -380 -488 -826 -538 -1320 -14 -146 -7 -447 16 -590 168 -1071 981
-1894 2050 -2076 172 -30 485 -37 669 -15 844 98 1568 609 1940 1370 119 241
191 475 233 753 20 136 23 499 5 628 -69 482 -234 872 -530 1250 -83 106 -314
331 -427 416 -495 371 -1087 545 -1690 498z m-186 -1174 c16 -8 31 -22 35 -30
3 -9 6 -84 6 -166 0 -132 2 -151 19 -168 17 -17 41 -19 252 -24 290 -7 390
-26 574 -111 155 -72 327 -212 436 -356 70 -92 164 -285 196 -405 24 -91 27
-117 27 -285 1 -160 -2 -197 -22 -275 -110 -433 -426 -751 -862 -867 -97 -26
-334 -36 -451 -18 -291 42 -574 209 -749 441 -106 141 -191 323 -193 409 -2
119 113 210 263 210 87 0 146 -22 177 -66 11 -16 39 -66 63 -112 100 -193 229
-308 415 -369 68 -22 97 -26 200 -26 103 0 132 4 200 26 202 67 361 218 431
411 34 94 47 213 35 318 -27 231 -134 386 -334 482 -147 70 -278 95 -499 96
-187 0 -178 11 -178 -205 0 -163 0 -166 -25 -190 -47 -48 -69 -38 -242 112
-87 75 -249 214 -359 310 -111 95 -204 183 -207 195 -3 12 -1 31 6 43 7 12 98
96 202 186 105 90 252 218 328 284 204 177 204 177 256 150z"/>
</g>
</svg>
